<svg width="111" height="22" viewBox="0 0 111 22" fill="none" xmlns="http://www.w3.org/2000/svg">
<path d="M1.494 17H4.41V4.4H1.494V17ZM16.0762 4.4V12.05L9.81225 4.4H7.40025V17H10.2803V9.35L16.5623 17H18.9563V4.4H16.0762ZM21.9374 17H27.6614C31.7834 17 34.6094 14.516 34.6094 10.7C34.6094 6.884 31.7834 4.4 27.6614 4.4H21.9374V17ZM24.8534 14.606V6.794H27.5174C30.0194 6.794 31.6574 8.288 31.6574 10.7C31.6574 13.112 30.0194 14.606 27.5174 14.606H24.8534ZM57.5554 4.4H52.1014V17H55.0174V13.526H57.5554C60.9214 13.526 63.0274 11.78 63.0274 8.972C63.0274 6.146 60.9214 4.4 57.5554 4.4ZM57.3934 11.15H55.0174V6.776H57.3934C59.1754 6.776 60.0754 7.586 60.0754 8.972C60.0754 10.34 59.1754 11.15 57.3934 11.15ZM68.0072 14.66V11.744H73.8572V9.476H68.0072V6.74H74.6312V4.4H65.1092V17H74.8652V14.66H68.0072ZM77.1854 17H82.9094C87.0314 17 89.8574 14.516 89.8574 10.7C89.8574 6.884 87.0314 4.4 82.9094 4.4H77.1854V17ZM80.1014 14.606V6.794H82.7654C85.2674 6.794 86.9054 8.288 86.9054 10.7C86.9054 13.112 85.2674 14.606 82.7654 14.606H80.1014ZM92.0565 17H94.9725V4.4H92.0565V17ZM107.377 17H110.437L104.803 4.4H101.923L96.3067 17H99.2948L100.411 14.3H106.261L107.377 17ZM101.347 12.086L103.345 7.262L105.343 12.086H101.347Z" fill="white"/>
<circle cx="43.5" cy="10.5" r="6.5" fill="#E2582D"/>
</svg>
